<svg xmlns="http://www.w3.org/2000/svg" width="53.604" height="15.754" viewBox="0 0 53.604 15.754">
  <g id="Gruppe_6" data-name="Gruppe 6" transform="translate(0.502)">
    <g id="Gruppe_5" data-name="Gruppe 5" transform="translate(0 0.566)">
      <path id="Rechteck_26" data-name="Rechteck 26" d="M6.894,0h8.588A3.638,3.638,0,0,1,19.12,3.638V7.583a6.894,6.894,0,0,1-6.894,6.894H6.894A6.894,6.894,0,0,1,0,7.583V6.894A6.894,6.894,0,0,1,6.894,0Z" transform="translate(2.862 0) rotate(0.256)" fill="none" stroke="#242424" stroke-linecap="round" stroke-linejoin="round" stroke-width="1"/>
      <path id="Rechteck_27" data-name="Rechteck 27" d="M6.894,0h5.333A6.894,6.894,0,0,1,19.12,6.894v3.945a3.638,3.638,0,0,1-3.638,3.638H6.894A6.894,6.894,0,0,1,0,7.583V6.894A6.894,6.894,0,0,1,6.894,0Z" transform="translate(49.727 14.686) rotate(-179.744)" fill="none" stroke="#242424" stroke-linecap="round" stroke-linejoin="round" stroke-width="1"/>
      <path id="Pfad_11" data-name="Pfad 11" d="M64.338,237.824l2.372.01,1.028-.821a1.666,1.666,0,0,1,2.1.01l1.02.83,2.393.01" transform="translate(-42.479 -235.462)" fill="none" stroke="#242424" stroke-linecap="round" stroke-linejoin="round" stroke-width="1"/>
      <line id="Linie_1" data-name="Linie 1" x1="4.106" y1="0.018" transform="translate(0 2.266)" fill="none" stroke="#242424" stroke-linecap="round" stroke-linejoin="round" stroke-width="1"/>
      <line id="Linie_2" data-name="Linie 2" x1="4.106" y1="0.018" transform="translate(48.493 2.478)" fill="none" stroke="#242424" stroke-linecap="round" stroke-linejoin="round" stroke-width="1"/>
    </g>
    <path id="Pfad_12" data-name="Pfad 12" d="M54.372,234.642" transform="translate(-41.216 -234.642)" fill="none" stroke="#242424" stroke-linecap="round" stroke-linejoin="round" stroke-width="1"/>
    <path id="Pfad_13" data-name="Pfad 13" d="M49.48,237.794" transform="translate(-40.596 -235.042)" fill="none" stroke="#242424" stroke-linecap="round" stroke-linejoin="round" stroke-width="1"/>
  </g>
</svg>
